<?xml version="1.0" standalone="no"?>
<!DOCTYPE svg PUBLIC "-//W3C//DTD SVG 20010904//EN"
 "http://www.w3.org/TR/2001/REC-SVG-20010904/DTD/svg10.dtd">
<svg version="1.0" xmlns="http://www.w3.org/2000/svg"
 width="256.000000pt" height="256.000000pt" viewBox="0 0 256.000000 256.000000"
 preserveAspectRatio="xMidYMid meet">
<metadata>
Created by potrace 1.16, written by Peter Selinger 2001-2019
</metadata>
<g transform="translate(0.000000,256.000000) scale(0.100000,-0.100000)"
fill="#000000" stroke="none">
<path d="M1290 2541 c-83 -27 -164 -87 -237 -176 -28 -33 -74 -85 -104 -116
-30 -31 -75 -86 -101 -121 -35 -50 -58 -71 -97 -89 l-50 -24 -1 -79 0 -78 -34
26 c-35 26 -76 35 -76 15 0 -6 16 -47 35 -92 19 -45 43 -116 54 -157 18 -70
23 -96 37 -210 3 -25 8 -52 11 -60 4 -8 5 -19 4 -24 -3 -14 88 -195 121 -240
26 -36 36 -66 22 -66 -3 0 -20 10 -37 22 -20 14 -44 22 -68 21 -20 -1 -59 6
-85 16 -40 14 -54 25 -73 60 -17 32 -28 41 -42 38 -15 -4 -44 36 -155 219
-135 224 -136 225 -119 250 15 23 22 26 55 21 20 -2 41 -2 46 2 17 12 34 62
34 101 0 35 -3 40 -28 46 -15 3 -47 12 -72 19 -61 18 -146 19 -157 3 -14 -22
-33 -82 -33 -105 0 -12 9 -27 19 -33 11 -5 23 -20 27 -32 8 -26 186 -321 256
-426 47 -70 49 -74 34 -97 -23 -34 -21 -98 3 -119 11 -10 43 -23 72 -29 28 -7
55 -19 59 -27 4 -8 13 -44 20 -80 14 -79 40 -109 125 -150 57 -27 188 -60 238
-60 23 0 24 -3 30 -90 9 -140 39 -195 147 -263 33 -21 36 -27 43 -92 15 -123
16 -120 -18 -121 -43 -2 -106 -21 -133 -40 -16 -11 -22 -24 -20 -42 3 -30 -8
-29 156 -16 91 7 92 7 92 -16 0 -22 2 -23 58 -17 75 8 173 40 186 60 8 12 3
33 -22 82 -35 72 -41 133 -19 188 24 56 39 61 82 27 21 -16 44 -30 51 -30 16
0 44 -51 44 -80 0 -34 19 -60 43 -60 13 0 26 -9 32 -22 14 -32 49 -35 69 -6
32 46 12 124 -44 172 -32 26 -33 29 -22 60 20 55 14 120 -22 225 -23 69 -47
119 -76 157 l-42 56 38 31 c22 17 51 45 67 60 29 31 40 32 127 10 50 -13 127
2 171 33 98 68 118 233 38 320 -19 20 -19 22 11 107 16 47 42 135 56 194 24
98 26 120 20 238 -8 182 -39 358 -78 445 -39 88 -68 107 -224 149 -60 16 -163
49 -229 72 -96 34 -135 42 -205 45 -47 2 -96 0 -110 -5z m127 -2205 c-5 -13 4
-93 18 -161 7 -32 12 -28 -106 -83 -4 -2 -9 5 -13 15 -4 10 -14 31 -22 46 -9
15 -18 62 -21 103 l-6 74 49 1 c27 1 60 5 74 9 14 4 27 8 29 9 2 1 1 -5 -2
-13z"/>
</g>
</svg>
